<svg width="28" height="28" viewBox="0 0 28 28" fill="none" xmlns="http://www.w3.org/2000/svg">
<path d="M27 6.96H23V4.76C23 3.78925 22.1031 3 21 3H11C9.89688 3 9 3.78925 9 4.76V6.96H5C4.44687 6.96 4 7.35325 4 7.84V8.72C4 8.841 4.1125 8.94 4.25 8.94H6.1375L6.90938 23.3225C6.95938 24.2602 7.84063 25 8.90625 25H23.0938C24.1625 25 25.0406 24.263 25.0906 23.3225L25.8625 8.94H27.75C27.8875 8.94 28 8.841 28 8.72V7.84C28 7.35325 27.5531 6.96 27 6.96ZM20.75 6.96H11.25V4.98H20.75V6.96Z" fill="#B88E2F"/>
</svg>
